<?xml version="1.0" encoding="utf-8"?>
<!-- Generator: Adobe Illustrator 16.0.0, SVG Export Plug-In . SVG Version: 6.00 Build 0)  -->
<!DOCTYPE svg PUBLIC "-//W3C//DTD SVG 1.0//EN" "http://www.w3.org/TR/2001/REC-SVG-20010904/DTD/svg10.dtd">
<svg version="1.0" id="Layer_1" xmlns="http://www.w3.org/2000/svg" xmlns:xlink="http://www.w3.org/1999/xlink" x="0px" y="0px"
	 width="800px" height="800px" viewBox="0 0 800 800" enable-background="new 0 0 800 800" xml:space="preserve">
<g>
	<polygon fill-rule="evenodd" clip-rule="evenodd" points="433.431,459.437 531.396,459.437 531.396,447.471 450.226,447.471 
		450.226,409.182 511.193,409.182 511.193,397.073 450.226,397.073 450.226,361.796 531.396,361.796 531.396,349.874 
		433.431,349.874 433.431,459.437 	"/>
	<polygon fill-rule="evenodd" clip-rule="evenodd" points="484.341,332.162 471.077,347.063 512.715,332.162 484.341,332.162 	"/>
	<polygon fill-rule="evenodd" clip-rule="evenodd" points="695.856,447.471 695.856,349.874 680.544,349.874 680.544,459.437 
		779.578,459.437 779.578,447.471 695.856,447.471 	"/>
	<path fill-rule="evenodd" clip-rule="evenodd" d="M594.875,349.874l-55.71,109.563h18.831l14.251-28.358h66.817l14.372,28.358
		h18.636l-55.753-109.563H594.875L594.875,349.874L594.875,349.874z M579.3,417.346l26.252-52.333l26.559,52.333H579.3
		L579.3,417.346z"/>
	<path fill-rule="evenodd" clip-rule="evenodd" d="M380.271,413.623c25.102-6.698,27.54-25.374,27.413-32.05
		c-1.499-19.574-14.687-31.699-38.383-31.699h-69.055v109.563h15.742v-45.959h44.956l33.073,45.959h19.842
		C413.86,459.437,390.059,428.506,380.271,413.623L380.271,413.623L380.271,413.623z M367.152,400.532h-51.163v-37.69h52.946
		c12.19,0,19.047,5.69,21.518,12.92c1.634,4.956,0.586,11.461-2.118,15.889C383.911,398.973,375.505,400.532,367.152,400.532
		L367.152,400.532z"/>
	<path fill-rule="evenodd" clip-rule="evenodd" d="M205.645,331.32c-44.438,0-74.725,31.332-74.725,69.254
		c0,39.922,33.458,68.105,74.725,68.105c41.24,0,74.684-27.78,74.684-68.105C280.328,362.652,249.666,331.32,205.645,331.32
		L205.645,331.32L205.645,331.32z M205.111,455.079c-30.744,0-56.075-24.706-56.075-54.468c0-29.722,24.136-55.61,57.268-55.61
		c32.311,0,56.062,25.889,56.062,55.61C262.365,430.372,235.842,455.079,205.111,455.079L205.111,455.079z"/>
	<polygon fill-rule="evenodd" clip-rule="evenodd" points="91.273,388.633 102.632,388.633 123.25,349.874 106.658,349.874 
		91.273,388.633 	"/>
	<polygon fill-rule="evenodd" clip-rule="evenodd" points="35.743,447.471 35.743,349.874 20.422,349.874 20.422,459.437 
		119.453,459.437 119.453,447.471 35.743,447.471 	"/>
</g>
</svg>
